<?xml version="1.0" encoding="UTF-8"?>
<svg width="28px" height="28px" viewBox="0 0 28 28" version="1.1" xmlns="http://www.w3.org/2000/svg" xmlns:xlink="http://www.w3.org/1999/xlink">
    <!-- Generator: Sketch 51.2 (57519) - http://www.bohemiancoding.com/sketch -->
    <title>circular-clock</title>
    <desc>Created with Sketch.</desc>
    <defs></defs>
    <g id="Page-1" stroke="none" stroke-width="1" fill="none" fill-rule="evenodd">
        <g id="Home" transform="translate(-78.000000, -321.000000)" fill-rule="nonzero">
            <g id="circular-clock" transform="translate(77.000000, 320.000000)">
                <path d="M22.1079258,10.1441602 C22.7298867,9.52219922 22.7298867,8.51403516 22.1079258,7.89215625 C21.4859648,7.27019531 20.4778008,7.27019531 19.8559219,7.89215625 L13.8180117,13.9300664 L16.0700156,16.1820703 L22.1079258,10.1441602 Z" id="Shape" fill="#181818"></path>
                <path d="M14.0344102,14.5580977 L5.07708984,23.515418 C4.68842578,23.904082 4.68842578,24.5342461 5.07708984,24.9229922 C5.27150391,25.1172422 5.52612891,25.2145312 5.78083594,25.2145312 C6.03554297,25.2145312 6.29033203,25.1173242 6.48458203,24.9229922 L15.4419023,15.9656719 L14.0344102,14.5580977 Z" id="Shape" fill="#EE3840"></path>
                <path d="M8.03275781,5.78083594 C7.41079688,5.158875 6.40263281,5.158875 5.78075391,5.78083594 C5.15879297,6.40279688 5.15879297,7.41096094 5.78075391,8.03283984 L13.9299844,16.1820703 L16.1819883,13.9300664 L8.03275781,5.78083594 Z" id="Shape" fill="#181818"></path>
                <path d="M15,17.4881719 C13.6280273,17.4881719 12.5118281,16.3719727 12.5118281,15 C12.5118281,13.6280273 13.6280273,12.5118281 15,12.5118281 C16.3719727,12.5118281 17.4881719,13.6280273 17.4881719,15 C17.4881719,16.3719727 16.3719727,17.4881719 15,17.4881719 Z" id="Shape" fill="#524E4D"></path>
                <path d="M3.45500391,15.9952852 L1.96211719,15.9952852 C1.41242578,15.9952852 0.966832031,15.5496094 0.966832031,15 C0.966832031,14.4503906 1.41242578,14.0047148 1.96211719,14.0047148 L3.45500391,14.0047148 C4.00469531,14.0047148 4.45028906,14.4503906 4.45028906,15 C4.45028906,15.5496094 4.00469531,15.9952852 3.45500391,15.9952852 Z" id="Shape" fill="#7A7674"></path>
                <path d="M15,4.45020703 C14.4503086,4.45020703 14.0047148,4.00453125 14.0047148,3.45492187 L14.0047148,1.96211719 C14.0047148,1.41250781 14.4503086,0.966832031 15,0.966832031 C15.5496914,0.966832031 15.9952852,1.41250781 15.9952852,1.96211719 L15.9952852,3.45500391 C15.9952852,4.00453125 15.5496914,4.45020703 15,4.45020703 Z" id="Shape" fill="#7A7674"></path>
                <path d="M28.0378828,15.9952852 L26.5449961,15.9952852 C25.9953047,15.9952852 25.5497109,15.5496094 25.5497109,15 C25.5497109,14.4503906 25.9953047,14.0047148 26.5449961,14.0047148 L28.0378828,14.0047148 C28.5875742,14.0047148 29.033168,14.4503906 29.033168,15 C29.033168,15.5496094 28.5875742,15.9952852 28.0378828,15.9952852 Z" id="Shape" fill="#7A7674"></path>
                <path d="M15,29.033168 C14.4503086,29.033168 14.0047148,28.5874922 14.0047148,28.0378828 L14.0047148,26.5449961 C14.0047148,25.9953867 14.4503086,25.5497109 15,25.5497109 C15.5496914,25.5497109 15.9952852,25.9953867 15.9952852,26.5449961 L15.9952852,28.0378828 C15.9952852,28.5874922 15.5496914,29.033168 15,29.033168 Z" id="Shape" fill="#7A7674"></path>
            </g>
        </g>
    </g>
</svg>