<?xml version="1.0" encoding="UTF-8"?>
<svg width="181px" height="50px" viewBox="0 0 181 50" version="1.1" xmlns="http://www.w3.org/2000/svg" xmlns:xlink="http://www.w3.org/1999/xlink">
    <!-- Generator: Sketch 51.2 (57519) - http://www.bohemiancoding.com/sketch -->
    <title>Logo</title>
    <desc>Created with Sketch.</desc>
    <defs></defs>
    <g id="Page-1" stroke="none" stroke-width="1" fill="none" fill-rule="evenodd">
        <g id="Home" transform="translate(-627.000000, -26.000000)">
            <g id="Group-6">
                <g id="Group-7" transform="translate(603.000000, 26.000000)">
                    <g id="Logo" transform="translate(24.000000, 0.000000)">
                        <circle id="Oval" fill="#EE4849" fill-rule="nonzero" cx="25" cy="25" r="25"></circle>
                        <path d="M66.796875,16.171875 C67.7031295,16.171875 68.4453096,16.2578116 69.0234375,16.4296875 L68.8828125,24.6796875 L68.2265625,24.6328125 C67.320308,24.539062 66.6484397,24.4921875 66.2109375,24.4921875 C64.9609313,24.4921875 63.957035,24.6601546 63.1992188,24.9960938 C62.4414025,25.3320329 61.8906267,25.851559 61.546875,26.5546875 L61.546875,42 L53.15625,42 L53.15625,16.640625 L60.984375,16.640625 L61.265625,19.9921875 C61.8906281,18.7578063 62.6757765,17.8125033 63.6210938,17.15625 C64.566411,16.4999967 65.6249941,16.171875 66.796875,16.171875 Z M85.1890625,16.171875 C86.095317,16.171875 86.8374971,16.2578116 87.415625,16.4296875 L87.275,24.6796875 L86.61875,24.6328125 C85.7124955,24.539062 85.0406272,24.4921875 84.603125,24.4921875 C83.3531187,24.4921875 82.3492225,24.6601546 81.5914062,24.9960938 C80.83359,25.3320329 80.2828142,25.851559 79.9390625,26.5546875 L79.9390625,42 L71.5484375,42 L71.5484375,16.640625 L79.3765625,16.640625 L79.6578125,19.9921875 C80.2828156,18.7578063 81.067964,17.8125033 82.0132812,17.15625 C82.9585985,16.4999967 84.0171816,16.171875 85.1890625,16.171875 Z M103.792187,16.171875 C106.010949,16.171875 107.858586,16.7187445 109.335156,17.8125 C110.811726,18.9062555 111.905465,20.4179591 112.616406,22.3476562 C113.327347,24.2773534 113.682812,26.4999874 113.682812,29.015625 L113.682812,29.5078125 C113.682812,33.5390827 112.866414,36.7070197 111.233594,39.0117188 C109.600773,41.3164178 107.135954,42.46875 103.839062,42.46875 C101.33905,42.46875 99.3234452,41.4375103 97.7921875,39.375 L97.440625,42 L89.940625,42 L89.940625,6 L98.33125,6 L98.33125,18.609375 C99.7843823,16.9843669 101.604677,16.171875 103.792187,16.171875 Z M105.26875,29.015625 C105.26875,27.0781153 105.026565,25.5781303 104.542187,24.515625 C104.05781,23.4531197 103.104695,22.921875 101.682812,22.921875 C100.073429,22.921875 98.9562531,23.4687445 98.33125,24.5625 L98.33125,34.1484375 C98.6437516,34.6953152 99.0734348,35.097655 99.6203125,35.3554688 C100.16719,35.6132825 100.870308,35.7421875 101.729687,35.7421875 C102.760943,35.7421875 103.530466,35.5000024 104.038281,35.015625 C104.546096,34.5312476 104.878124,33.8593793 105.034375,33 C105.190626,32.1406207 105.26875,30.9765698 105.26875,29.5078125 L105.26875,29.015625 Z M139.926562,16.640625 L139.926562,42 L132.075,42 L131.817187,39.2109375 C131.020309,40.2578177 130.055474,41.0624972 128.922656,41.625 C127.789838,42.1875028 126.528132,42.46875 125.1375,42.46875 C122.496862,42.46875 120.418758,41.7031327 118.903125,40.171875 C117.387492,38.6406173 116.629687,36.2656411 116.629687,33.046875 L116.629687,16.640625 L125.04375,16.640625 L125.04375,33.09375 C125.04375,33.9062541 125.293747,34.5468727 125.79375,35.015625 C126.293752,35.4843773 127.035933,35.71875 128.020312,35.71875 C129.692196,35.71875 130.848434,35.1718805 131.489062,34.078125 L131.489062,16.640625 L139.926562,16.640625 Z M167.014062,16.640625 L167.014062,42 L159.1625,42 L158.904687,39.2109375 C158.107809,40.2578177 157.142974,41.0624972 156.010156,41.625 C154.877338,42.1875028 153.615632,42.46875 152.225,42.46875 C149.584362,42.46875 147.506258,41.7031327 145.990625,40.171875 C144.474992,38.6406173 143.717187,36.2656411 143.717187,33.046875 L143.717187,16.640625 L152.13125,16.640625 L152.13125,33.09375 C152.13125,33.9062541 152.381247,34.5468727 152.88125,35.015625 C153.381252,35.4843773 154.123433,35.71875 155.107812,35.71875 C156.779696,35.71875 157.935934,35.1718805 158.576562,34.078125 L158.576562,16.640625 L167.014062,16.640625 Z M172.445312,30.84375 L171.34375,7.875 L180.320312,7.875 L179.195312,30.84375 L172.445312,30.84375 Z M175.75,33.703125 C176.640629,33.703125 177.437496,33.8945293 178.140625,34.2773438 C178.843754,34.6601582 179.394529,35.1835904 179.792969,35.8476562 C180.191408,36.5117221 180.390625,37.2578084 180.390625,38.0859375 C180.390625,38.9140666 180.191408,39.6601529 179.792969,40.3242188 C179.394529,40.9882846 178.843754,41.5117168 178.140625,41.8945312 C177.437496,42.2773457 176.640629,42.46875 175.75,42.46875 C174.859371,42.46875 174.058597,42.2773457 173.347656,41.8945312 C172.636715,41.5117168 172.082033,40.9882846 171.683594,40.3242188 C171.285154,39.6601529 171.085937,38.9140666 171.085937,38.0859375 C171.085937,37.2578084 171.285154,36.5117221 171.683594,35.8476562 C172.082033,35.1835904 172.636715,34.6601582 173.347656,34.2773438 C174.058597,33.8945293 174.859371,33.703125 175.75,33.703125 Z" id="rrbuu!" fill="#202E2A"></path>
                        <path d="M24.1796875,28.2421875 C21.8671759,27.4609336 19.8750084,26.6132858 18.203125,25.6992188 C16.5312416,24.7851517 15.1601616,23.6171946 14.0898438,22.1953125 C13.0195259,20.7734304 12.484375,19.06251 12.484375,17.0625 C12.484375,15.0937402 13.058588,13.3828198 14.2070312,11.9296875 C15.3554745,10.4765552 16.9453023,9.35937891 18.9765625,8.578125 C21.0078227,7.79687109 23.2968623,7.40625 25.84375,7.40625 C28.3281374,7.40625 30.5390528,7.82812078 32.4765625,8.671875 C34.4140722,9.51562922 35.9335882,10.7382732 37.0351562,12.3398438 C38.1367243,13.9414143 38.6875,15.8515514 38.6875,18.0703125 L29.96875,18.0703125 C29.96875,16.9140567 29.59766,15.9960971 28.8554688,15.3164062 C28.1132775,14.6367154 27.0390695,14.296875 25.6328125,14.296875 C24.6953078,14.296875 23.8906284,14.4296862 23.21875,14.6953125 C22.5468716,14.9609388 22.0390642,15.3085916 21.6953125,15.7382812 C21.3515608,16.1679709 21.1796875,16.6406224 21.1796875,17.15625 C21.1796875,18.0156293 21.6757763,18.749997 22.6679688,19.359375 C23.6601612,19.968753 25.1796773,20.6093716 27.2265625,21.28125 C30.9922063,22.5000061 33.8398341,24.0156159 35.7695312,25.828125 C37.6992284,27.6406341 38.6640625,29.9531109 38.6640625,32.765625 C38.6640625,34.8281353 38.1406302,36.5859302 37.09375,38.0390625 C36.0468698,39.4921948 34.570322,40.5937462 32.6640625,41.34375 C30.757803,42.0937538 28.5156379,42.46875 25.9375,42.46875 C23.4218624,42.46875 21.0664172,42.0507854 18.8710938,41.2148438 C16.6757703,40.3789021 14.8906319,39.0703214 13.515625,37.2890625 C12.1406181,35.5078036 11.453125,33.2734509 11.453125,30.5859375 L20.2421875,30.5859375 C20.2421875,31.8515688 20.4492167,32.8515588 20.8632812,33.5859375 C21.2773458,34.3203162 21.8984334,34.8398422 22.7265625,35.1445312 C23.5546916,35.4492203 24.6249934,35.6015625 25.9375,35.6015625 C27.2968818,35.6015625 28.300778,35.3320339 28.9492188,34.7929688 C29.5976595,34.2539036 29.921875,33.5937539 29.921875,32.8125 C29.921875,32.1406216 29.7812514,31.5742211 29.5,31.1132812 C29.2187486,30.6523414 28.6679729,30.1953148 27.8476562,29.7421875 C27.0273396,29.2890602 25.8046956,28.7890652 24.1796875,28.2421875 Z" id="S" fill="#FFFFFF" transform="translate(25.070312, 24.937500) rotate(-15.000000) translate(-25.070312, -24.937500) "></path>
                    </g>
                </g>
            </g>
        </g>
    </g>
</svg>